<svg width="88" height="31" viewBox="0 0 88 31" fill="none" xmlns="http://www.w3.org/2000/svg">
<g clip-path="url(#clip0_55_137)">
<path d="M2.303 0.583008L85.43 0.732008C86.591 0.732008 87.628 0.559008 87.628 3.06501L87.525 30.621H0.205002V2.96301C0.205002 1.72701 0.323002 0.583008 2.303 0.583008Z" fill="white"/>
<path d="M14.387 26.777C20.5179 26.777 25.488 21.7742 25.488 15.603C25.488 9.43179 20.5179 4.42902 14.387 4.42902C8.25609 4.42902 3.286 9.43179 3.286 15.603C3.286 21.7742 8.25609 26.777 14.387 26.777Z" fill="white"/>
<path d="M23.771 4.16202C27.255 6.75402 29.525 10.906 29.526 15.602C29.525 19.874 27.646 23.697 24.684 26.307H87.537V4.16202H23.771Z" fill="black"/>
<path d="M36.239 7.66C36.631 7.66 36.967 7.719 37.241 7.833C37.517 7.949 37.741 8.101 37.915 8.289C38.088 8.478 38.214 8.694 38.294 8.936C38.373 9.178 38.412 9.43 38.412 9.689C38.412 9.942 38.373 10.192 38.294 10.438C38.214 10.682 38.088 10.9 37.915 11.088C37.741 11.277 37.518 11.429 37.241 11.544C36.967 11.658 36.631 11.717 36.239 11.717H34.787V13.984H33.405V7.66H36.239ZM35.86 10.636C36.018 10.636 36.172 10.624 36.317 10.601C36.464 10.578 36.593 10.532 36.705 10.464C36.817 10.396 36.906 10.3 36.974 10.176C37.042 10.052 37.075 9.889 37.075 9.689C37.075 9.489 37.042 9.327 36.974 9.202C36.907 9.078 36.817 8.981 36.705 8.915C36.594 8.847 36.465 8.801 36.317 8.777C36.171 8.753 36.018 8.741 35.86 8.741H34.787V10.637L35.86 10.636Z" fill="white"/>
<path d="M44.251 13.501C43.775 13.918 43.118 14.126 42.279 14.126C41.428 14.126 40.77 13.919 40.303 13.506C39.837 13.094 39.604 12.454 39.604 11.593V7.66H40.985V11.594C40.985 11.765 41.001 11.932 41.03 12.099C41.059 12.264 41.121 12.41 41.215 12.538C41.309 12.664 41.44 12.767 41.607 12.847C41.774 12.928 41.999 12.967 42.28 12.967C42.773 12.967 43.113 12.857 43.301 12.635C43.489 12.413 43.583 12.067 43.583 11.595V7.66H44.965V11.594C44.964 12.449 44.727 13.084 44.251 13.501Z" fill="white"/>
<path d="M49.57 7.66C49.87 7.66 50.142 7.687 50.388 7.741C50.632 7.795 50.845 7.881 51.021 8.002C51.198 8.123 51.333 8.284 51.431 8.484C51.527 8.685 51.577 8.934 51.577 9.229C51.577 9.547 51.505 9.813 51.361 10.025C51.215 10.237 51.004 10.413 50.722 10.548C51.109 10.66 51.398 10.858 51.587 11.137C51.776 11.418 51.873 11.757 51.873 12.152C51.873 12.471 51.811 12.747 51.686 12.98C51.563 13.212 51.397 13.403 51.19 13.551C50.981 13.699 50.745 13.808 50.477 13.878C50.208 13.948 49.936 13.983 49.655 13.983H46.608V7.66H49.57ZM49.395 10.22C49.641 10.22 49.843 10.161 50.002 10.042C50.16 9.924 50.238 9.733 50.238 9.466C50.238 9.319 50.213 9.197 50.16 9.103C50.107 9.01 50.037 8.935 49.949 8.882C49.859 8.829 49.76 8.791 49.644 8.773C49.529 8.751 49.412 8.741 49.289 8.741H47.995V10.221L49.395 10.22ZM49.475 12.905C49.61 12.905 49.739 12.891 49.862 12.865C49.985 12.839 50.092 12.793 50.188 12.732C50.28 12.67 50.356 12.585 50.414 12.478C50.47 12.374 50.497 12.237 50.497 12.072C50.497 11.748 50.405 11.515 50.226 11.377C50.044 11.239 49.802 11.169 49.503 11.169H47.998V12.907H49.477V12.905H49.475Z" fill="white"/>
<path d="M54.643 7.66V12.816H57.705V13.984H53.26V7.66H54.643Z" fill="white"/>
<path d="M60.248 7.66V13.984H58.866V7.66H60.248Z" fill="white"/>
<path d="M65.951 9.34802C65.869 9.21602 65.765 9.09902 65.642 8.99902C65.519 8.89702 65.379 8.81902 65.224 8.76302C65.068 8.70602 64.908 8.67902 64.736 8.67902C64.424 8.67902 64.162 8.74102 63.943 8.86202C63.726 8.98202 63.549 9.14502 63.418 9.34802C63.282 9.55202 63.186 9.78402 63.122 10.043C63.06 10.302 63.029 10.571 63.029 10.849C63.029 11.116 63.06 11.373 63.122 11.625C63.184 11.876 63.282 12.102 63.418 12.303C63.552 12.504 63.73 12.664 63.943 12.786C64.162 12.906 64.424 12.967 64.736 12.967C65.16 12.967 65.488 12.837 65.726 12.578C65.962 12.318 66.109 11.976 66.163 11.55H67.5C67.466 11.946 67.374 12.303 67.229 12.622C67.083 12.94 66.887 13.213 66.647 13.437C66.409 13.662 66.126 13.833 65.802 13.95C65.479 14.069 65.124 14.128 64.737 14.128C64.258 14.128 63.823 14.044 63.44 13.876C63.055 13.707 62.731 13.478 62.467 13.181C62.202 12.886 61.999 12.539 61.86 12.141C61.718 11.742 61.649 11.312 61.649 10.852C61.649 10.379 61.718 9.94102 61.86 9.53602C62.001 9.13202 62.204 8.77802 62.467 8.47702C62.731 8.17502 63.055 7.94102 63.44 7.76902C63.824 7.59702 64.255 7.51102 64.737 7.51102C65.085 7.51102 65.413 7.56202 65.718 7.66102C66.026 7.76302 66.301 7.90902 66.545 8.10102C66.788 8.29202 66.988 8.53102 67.149 8.81302C67.307 9.09602 67.408 9.42102 67.45 9.78802H66.11C66.086 9.62502 66.033 9.47802 65.951 9.34802Z" fill="white"/>
<path d="M36.115 16.519C36.52 16.519 36.897 16.581 37.246 16.711C37.596 16.841 37.897 17.035 38.152 17.296C38.407 17.556 38.607 17.882 38.751 18.271C38.895 18.662 38.967 19.12 38.967 19.642C38.967 20.105 38.908 20.53 38.791 20.919C38.673 21.31 38.496 21.646 38.259 21.931C38.021 22.212 37.725 22.435 37.369 22.599C37.015 22.759 36.597 22.841 36.115 22.841H33.405V16.519H36.115ZM36.019 21.673C36.218 21.673 36.412 21.642 36.6 21.575C36.788 21.513 36.954 21.402 37.102 21.252C37.248 21.101 37.366 20.905 37.454 20.662C37.542 20.421 37.586 20.126 37.586 19.776C37.586 19.459 37.555 19.17 37.493 18.913C37.431 18.657 37.331 18.434 37.189 18.254C37.048 18.071 36.863 17.931 36.63 17.833C36.399 17.735 36.113 17.687 35.772 17.687H34.788V21.673H36.019Z" fill="white"/>
<path d="M40.3 18.39C40.441 17.987 40.644 17.634 40.906 17.331C41.171 17.028 41.495 16.793 41.879 16.622C42.264 16.451 42.695 16.365 43.177 16.365C43.664 16.365 44.098 16.451 44.48 16.622C44.861 16.793 45.184 17.028 45.449 17.331C45.713 17.634 45.915 17.983 46.054 18.39C46.197 18.794 46.267 19.235 46.267 19.706C46.267 20.166 46.197 20.597 46.054 20.994C45.912 21.391 45.71 21.738 45.449 22.034C45.183 22.329 44.861 22.559 44.48 22.729C44.098 22.895 43.665 22.981 43.177 22.981C42.696 22.981 42.264 22.895 41.879 22.729C41.495 22.559 41.171 22.329 40.906 22.034C40.643 21.738 40.44 21.389 40.3 20.994C40.16 20.597 40.089 20.166 40.089 19.706C40.089 19.235 40.159 18.795 40.3 18.39ZM41.562 20.48C41.624 20.732 41.722 20.959 41.857 21.16C41.992 21.36 42.169 21.519 42.384 21.642C42.602 21.763 42.865 21.825 43.176 21.825C43.488 21.825 43.752 21.763 43.968 21.642C44.186 21.521 44.362 21.361 44.497 21.16C44.631 20.96 44.728 20.732 44.792 20.48C44.854 20.23 44.884 19.972 44.884 19.706C44.884 19.43 44.854 19.159 44.792 18.9C44.73 18.638 44.631 18.408 44.497 18.204C44.361 18.003 44.185 17.839 43.968 17.719C43.752 17.598 43.488 17.535 43.176 17.535C42.865 17.535 42.602 17.597 42.384 17.719C42.168 17.839 41.991 18.003 41.857 18.204C41.722 18.408 41.624 18.641 41.562 18.9C41.5 19.159 41.469 19.427 41.469 19.706C41.47 19.972 41.501 20.23 41.562 20.48Z" fill="white"/>
<path d="M49.592 16.519L51.063 20.867H51.083L52.476 16.519H54.418V22.841H53.124V18.361H53.104L51.565 22.841H50.5L48.96 18.404H48.941V22.841H47.648V16.519H49.592Z" fill="white"/>
<path d="M59.264 16.519L61.614 22.841H60.18L59.704 21.433H57.353L56.861 22.841H55.47L57.847 16.519H59.264ZM59.344 20.398L58.551 18.076H58.533L57.716 20.398H59.344Z" fill="white"/>
<path d="M64.047 16.519V22.841H62.665V16.519H64.047Z" fill="white"/>
<path d="M67.104 16.519L69.727 20.761H69.745V16.519H71.039V22.841H69.655L67.044 18.607H67.024V22.841H65.73V16.519H67.104Z" fill="white"/>
<path d="M86.352 0.101013H1.647C0.739 0.101013 0 0.845013 0 1.75901V30.728C0 30.935 0.167 31.101 0.372 31.101H87.628C87.833 31.101 88 30.935 88 30.728V1.75901C88 0.845013 87.262 0.101013 86.352 0.101013ZM1.647 0.851013H86.352C86.85 0.851013 87.254 1.25701 87.254 1.75901C87.254 1.75901 87.254 21.88 87.254 30.316H0.745V21.89C0.745 13.455 0.745 1.75901 0.745 1.75901C0.745 1.25801 1.15 0.851013 1.647 0.851013Z" fill="black"/>
<path d="M14.656 26.838C20.7333 26.838 25.66 21.8791 25.66 15.762C25.66 9.6449 20.7333 4.686 14.656 4.686C8.57865 4.686 3.65199 9.6449 3.65199 15.762C3.65199 21.8791 8.57865 26.838 14.656 26.838Z" fill="white"/>
<path d="M14.72 8.84698C10.858 8.84698 9.88599 12.516 9.88599 15.626C9.88599 18.737 10.857 22.405 14.72 22.405C18.583 22.405 19.554 18.735 19.554 15.626C19.554 12.515 18.583 8.84698 14.72 8.84698ZM14.72 11.402C14.877 11.402 15.02 11.426 15.155 11.462C15.433 11.702 15.569 12.035 15.302 12.5L12.73 17.26C12.651 16.657 12.639 16.065 12.639 15.626C12.639 14.256 12.733 11.402 14.72 11.402ZM16.646 13.595C16.783 14.326 16.801 15.088 16.801 15.625C16.801 16.995 16.707 19.848 14.721 19.848C14.565 19.848 14.42 19.831 14.286 19.799C14.261 19.789 14.237 19.78 14.212 19.774C14.172 19.762 14.128 19.75 14.09 19.733C13.648 19.545 13.369 19.202 13.771 18.594L16.646 13.595Z" fill="black"/>
<path d="M14.695 3.849C11.45 3.849 8.715 4.986 6.485 7.271C5.357 8.406 4.495 9.702 3.896 11.147C3.311 12.577 3.02 14.068 3.02 15.625C3.02 17.195 3.311 18.687 3.896 20.104C4.481 21.521 5.33 22.794 6.444 23.93C7.572 25.051 8.839 25.915 10.246 26.518C11.667 27.108 13.149 27.402 14.695 27.402C16.242 27.402 17.745 27.098 19.194 26.495C20.642 25.891 21.934 25.024 23.077 23.89C24.178 22.812 25.011 21.573 25.567 20.171C26.138 18.756 26.42 17.239 26.42 15.627C26.42 14.029 26.139 12.515 25.568 11.099C24.997 9.67 24.161 8.406 23.061 7.298C20.763 4.996 17.969 3.849 14.695 3.849ZM14.744 5.968C17.39 5.968 19.648 6.912 21.528 8.804C22.434 9.716 23.128 10.758 23.601 11.923C24.074 13.087 24.314 14.321 24.314 15.626C24.314 18.333 23.394 20.578 21.57 22.372C20.622 23.299 19.558 24.01 18.374 24.5C17.204 24.989 15.999 25.232 14.744 25.232C13.476 25.232 12.263 24.993 11.106 24.515C9.95 24.026 8.913 23.324 7.993 22.411C7.073 21.486 6.364 20.441 5.863 19.276C5.376 18.098 5.125 16.885 5.125 15.623C5.125 14.347 5.376 13.126 5.863 11.961C6.364 10.783 7.074 9.726 7.993 8.786C9.817 6.91 12.07 5.968 14.744 5.968Z" fill="black"/>
</g>
<defs>
<clipPath id="clip0_55_137">
<rect width="88" height="31" fill="white"/>
</clipPath>
</defs>
</svg>
