<svg fill="none" height="32" viewBox="0 0 32 32" width="32" xmlns="http://www.w3.org/2000/svg"><rect fill="#fff" height="30" rx="15" width="30" x="1" y="1"/><path d="m16.2379 3.77414c1.1758.02052 2.1666.32586 2.9725.91601.9249.64025 1.5965 1.36008 2.0146 2.15949.5137.82509.9518 1.8529 1.3144 3.08341.2029.74765.4114 1.86745.6254 3.35945.0177.3603.0323.9007.0437 1.621.0119.6963.0265 1.2366.0438 1.621-.0126.7199-.0799 1.8229-.2018 3.309-.2394 1.34-.4858 2.3919-.7392 3.1556-.2567.9556-.6919 1.8242-1.3057 2.6056-.6137.7814-1.3441 1.3687-2.1911 1.762-.7038.4438-1.7036.6544-2.9994.6318-1.1519-.0202-2.1193-.2891-2.9024-.8068-.7355-.4929-1.4308-1.2252-2.086-2.1968-.5145-.7771-.94105-1.7807-1.27964-3.0108-.2493-.8444-.46894-2.0124-.65894-3.504-.07253-1.3455-.10168-2.4261-.08743-3.242.02555-1.4638.09281-2.5668.20178-3.309.11022-.8142.31979-1.8187.62868-3.01348.00042-.024.00084-.04799.00126-.07199.02442-.02358.03683-.04736.03725-.07136.35394-1.02598.82514-1.89389 1.41364-2.60373.4933-.7595 1.1877-1.34747 2.0831-1.76391.7519-.44295 1.7757-.65311 3.0715-.63049zm-4.5585 15.69086c-.0051.2879.0269.5165.096.6858-.0013.0719.0221.1084.0701.1092.12.0021.4759-.4478 1.0677-1.3496l4.9121-9.13164c.4462-.80834.6745-1.51246.685-2.11237.0029-.16797-.031-.28858-.1017-.36183l-.6751-.51586c-.4037-.24708-.9176-.37607-1.5415-.38696-.9358-.01634-1.6473.17528-2.1343.57484-.5586.3743-1.06.90564-1.5041 1.59399-.3481.69003-.6134 1.45353-.7961 2.29043-.1822.813-.2815 1.6874-.2978 2.6232-.058.5751-.0896 1.0066-.0946 1.2946-.005.2879.0114.7203.0494 1.297-.013.7439.0346 1.4529.1429 2.1269-.0055.3119.0352.7327.122 1.2623zm6.3146 5.403c.6075-.4215 1.0728-.9534 1.3961-1.5959.4453-.7603.7111-1.5478.7973-2.3624.1823-.813.3177-1.6987.4065-2.6573.0286-.2636.0479-.6833.058-1.2592.0092-.5279.0041-.9241-.0153-1.1885l-.1423-2.1628c-.0223-.0964-.0429-.2888-.0619-.5771-.019-.2884-.051-.517-.0961-.6858.0009-.048-.0097-.1322-.0316-.2526-.0214-.1444-.0313-.2646-.0297-.3606.0013-.072-.0221-.1084-.0701-.1092-.2399-.0042-.596.4576-1.0683 1.3855l-4.9121 9.1317c-.4694.7599-.7089 1.4158-.7185 1.9678-.0042.2399.0409.4087.1352.5064.2366.1962.4383.3317.605.4066.4989.2968 1.0363.4502 1.6122.4602.8879.0155 1.5997-.2001 2.1356-.6468z" fill="#000"/><rect height="30" rx="15" stroke="#000" stroke-width="2" width="30" x="1" y="1"/></svg>